<svg width="70" height="70" viewBox="0 0 70 70" class="css-1j8o68f">
    <g transform="matrix(0.7865168452262878,0,0,0.7865168452262878,-4.325842696629214,-4.404196899928404)" fill="white">
        <g xmlns="http://www.w3.org/2000/svg">
            <path fill="white" d="M94.5,50c0-2.8-0.2-4.3-0.6-6.8c0,0,0,0,0-0.1c0-0.1-0.1-0.2-0.1-0.3c0-0.1-0.1-0.2-0.1-0.2   c-0.1-0.1-0.1-0.1-0.2-0.2c-0.1-0.1-0.1-0.1-0.2-0.2c-0.1,0-0.2-0.1-0.2-0.1c-0.1,0-0.2-0.1-0.3-0.1c0,0,0,0-0.1,0   c-0.1,0-0.1,0-0.2,0c-0.1,0-0.1,0-0.2,0c0,0,0,0-0.1,0c-0.1,0-0.2,0.1-0.3,0.1c-0.1,0-0.2,0.1-0.2,0.1c-0.1,0.1-0.1,0.1-0.2,0.2   c-0.1,0.1-0.1,0.1-0.2,0.2c0,0.1-0.1,0.2-0.1,0.2c0,0.1-0.1,0.2-0.1,0.3c0,0,0,0,0,0.1c-0.4,3.6-3.3,8.7-7.5,13.2c0,0,0,0,0,0   c-1.9,1.8-3.9,3.6-6,5c-3.8,2.7-8.1,4.5-13.2,4.5c-3,0-6.2-0.6-9.5-1.9c-7.3-2.7-8.1-10.3-8.1-13.4C46.6,45,49,40,51.2,39   c0.1-0.1,0.3-0.1,0.4-0.2c0,0,0,0,0.1,0c0,0,0,0,0,0c3.5-0.7,6.9-0.2,8.3,1.4c0.6,0.7,0.8,1.6,0.4,2.7c-1.1,3-0.3,6.4,2,8.3   c2.3,1.9,5.4,1.9,8.3,0.1c3.4-2,5.3-5.3,5.3-9c0-1.9-0.5-3.7-1.5-5.4c2.6,0.6,5.3,0.5,7.2-1.4c1.9-1.9,2.4-4.8,1.2-7.6   c-1.4-3.3-5.5-7.1-12.8-7.1c-2.5,0-4.5,0.1-6.3,0.2c-2.9,0.2-5.2,0.3-8.3-0.2c-2.5-0.4-3.6-1.3-3.8-2c-0.1-0.4,0.1-0.8,0.3-1   c0.6-0.6,2-1.1,4-0.5c3.2,1,5.2-0.3,6.1-1.1c1.5-1.5,2.1-3.8,1.6-5.8c-0.5-1.9-1.9-3.3-3.9-3.7c0,0,0,0,0,0c0,0,0,0,0,0   c-3.2-0.7-6.5-1.1-9.9-1.1C25.5,5.5,5.5,25.5,5.5,50c0,20.2,13.5,37.3,32,42.7c0.1,0,0.2,0.1,0.3,0.1c0,0,0.1,0,0.1,0   c0.3,0.1,0.6,0.2,0.9,0.2c2.8,0.8,5.8,1.2,8.8,1.3c0.4,0,0.7,0,1.1,0c0.3,0,0.6,0,0.8,0c0.1,0,0.2,0,0.2,0c0,0,0,0,0.1,0   c0.1,0,0.1,0,0.2,0c0.2,0,0.4,0,0.6,0c0.1,0,0.3,0,0.4,0C75.2,93.8,94.5,74.1,94.5,50z M44.6,70.5c-0.2,0-0.5,0-0.8-0.1   c-2.4-0.5-2.4-2.6-2.5-4.1c-0.1-1.6-0.2-2.2-1-3.5c-0.4-0.6,0.1-1.2,0.7-1.2c0.1,0,0.2,0,0.4,0.1c2.6,1.3,6.2,3.5,6.1,5.9   C47.5,67.7,47.1,70.5,44.6,70.5z M50,8.5c3.1,0,6.2,0.3,9.2,1c0,0,0,0,0,0c1.1,0.3,1.5,1,1.7,1.6c0.3,1,0,2.2-0.8,2.9   c-0.7,0.7-1.8,0.8-3.1,0.4c-2.7-0.8-5.4-0.4-7,1.2c-1.1,1.1-1.5,2.6-1,4c0.4,1.2,1.7,3.2,6.1,4c3.4,0.6,5.9,0.4,9,0.2   c1.7-0.1,3.7-0.2,6.1-0.2c5.8,0,9,2.9,10,5.3c0.7,1.7,0.5,3.3-0.6,4.4c-2.2,2.2-7.8-0.4-10.4-1.9c-0.3-0.2-0.5-0.3-0.8-0.5   c-0.7-0.4-1.6-0.2-2,0.5c-0.4,0.7-0.2,1.6,0.4,2c0.1,0.1,0.4,0.3,0.8,0.5c3.4,2.2,5.3,5.2,5.3,8.3c0,2.6-1.4,4.9-3.8,6.4   c-1.9,1.1-3.6,1.2-4.9,0.1c-1.3-1.1-1.8-3.1-1.1-5c0.7-2.1,0.4-4.1-0.9-5.6c-2.1-2.4-6.5-3.3-11.2-2.4c-0.3,0.1-0.6,0.1-0.8,0.2   c-1.7,0.5-5,1.8-7.5,4c-0.9-3-4-4.9-6.5-6.3c-1.5-0.9-3.5-2.1-3.5-2.8c0-0.9,1.1-2.3,2.3-2.6c1.1-0.3,2.1,0.4,3,1.9   c1.4,2.5,4,4.2,6.3,4c1.9-0.1,3.5-1.2,4.4-3.2c0.7-1.5,0.7-3.4,0.1-5c-0.5-1.3-1.7-3-4.5-4.1c-0.8-0.3-1.6,0.1-1.9,0.8   c-0.3,0.8,0.1,1.6,0.8,1.9c1.5,0.6,2.4,1.4,2.8,2.4c0.4,1,0.2,2,0,2.6c-0.4,1-1,1.5-1.8,1.5c-1.2,0.1-2.8-1-3.6-2.5   c-2.2-3.9-5.2-3.6-6.3-3.3c-2.5,0.6-4.6,3.1-4.6,5.5c0,2.4,2.4,3.8,4.9,5.3c3.7,2.2,6,3.8,5.1,6.7c-0.1,0.3-0.3,0.5-0.7,0.7   c-0.7,0.3-1.7,0.3-2.4,0c-1.1-0.5-2.1-1.3-2.9-2c-1.3-1.1-2.5-2.1-4-1.8c-1,0.1-1.8,0.7-2.5,1.8c-0.3,0.5-0.5,1.1-0.3,1.7   c0.4,1.4,1.9,2.2,4.3,3.5c4.1,2.2,7.5,4.2,7.5,7.2c0,0.1,0,0.2,0,0.4c0,0.1,0,0.2,0,0.4c0,0.2-0.1,0.3-0.1,0.5   c0,0.1-0.1,0.2-0.1,0.3c0,0.1-0.1,0.2-0.1,0.3c-0.1,0.2-0.2,0.3-0.4,0.5c-0.1,0.1-0.2,0.2-0.3,0.3c-0.8,0.6-1.9,0.9-2.9,0.9   c0,0,0,0,0,0c-1.4,0-3.2-0.6-3.5-2.4c-0.5-2.6-4.7-5.7-8.4-6c-1.8-0.2-3.4,0.3-4.5,1.4L18,50.9c-0.1,0.1-0.2,0.3-0.3,0.4   c-0.1,0.2-0.2,0.3-0.3,0.5c0,0.1-0.1,0.1-0.1,0.2c-0.1,0.1-0.1,0.2-0.2,0.4C17,52.4,17,52.5,17,52.6c0,0,0,0,0,0   c-0.1,0.1-0.1,0.3-0.1,0.4c-0.5,2.2,2.3,3.9,6,6.2c6.1,3.7,10.9,7.1,9.1,11.3c-0.4,0.9-1.2,1.8-2.2,2.4c-1,0.6-2.2,0.9-3.3,0.9   c-2.3,0-4.2-1.4-5.3-3.9c-1.1-2.5-2.4-3.8-3.9-3.8c-1.1,0-2.1,0.6-2.8,1.8c-0.3,0.7-0.6,1.5-0.6,2.4c-3.4-6-5.4-13-5.4-20.3   C8.5,27.1,27.1,8.5,50,8.5z"></path>
            <path fill="white" d="M80.7,39.4c-1.2,0-2.2,0.6-2.9,1.6c-0.6,1-0.7,2.2-0.2,3.2c0,0.1,0,0.1,0.1,0.1c0,0.1,0,0.1,0,0.3v0.1   c-0.1,0.6-0.1,1.4,0.1,2.3c0.4,1.4,1.4,2.5,2.8,3c0.5,0.2,1.1,0.3,1.6,0.3c2.3,0,3.8-1.7,4.4-3.4c0-0.1,0.1-0.2,0.1-0.4   c0.4-2.3-1-4.5-4-6.5C82,39.6,81.4,39.4,80.7,39.4z M82.2,47.4c-0.2,0-0.4,0-0.6-0.1c-1.2-0.4-1.1-1.5-1-2.3   c0.1-0.9,0.1-1.2-0.3-1.9c-0.1-0.3,0.1-0.6,0.4-0.6c0.1,0,0.2,0,0.2,0.1c1.2,0.9,3,2.3,2.8,3.6C83.7,46.1,83.3,47.4,82.2,47.4z"></path>
            <path fill="white" d="M69,15.9c0,0,0.1,0.1,0.1,0.1c0,0,0.1,0.1,0.1,0.2l0,0.1c0.2,0.5,0.5,1.2,1.1,1.8c0.9,1,2.1,1.5,3.4,1.5   c0.2,0,0.4,0,0.6,0c1.3-0.2,2.5-0.8,3.2-1.8c1.1-1.5,0.9-3.2,0.8-3.6c0-0.1-0.1-0.3-0.1-0.4c-1.1-3.2-5.4-3.7-6.8-3.9   c-0.1,0-0.3,0-0.4,0c-1.5,0-2.8,0.9-3.2,2.3C67.4,13.6,67.9,15.1,69,15.9z M71.1,12.8L71.1,12.8c1.6,0.2,4,0.7,4.4,1.9   c0,0,0.3,1.7-1.5,1.9c-0.1,0-0.2,0-0.3,0c-1.1,0-1.5-0.9-1.8-1.6c-0.3-0.7-0.5-1-1.2-1.5C70.5,13.3,70.7,12.8,71.1,12.8z"></path>
        </g>
    </g>
</svg>